<mxfile host="app.diagrams.net" agent="Mozilla/5.0 (Windows NT 10.0; Win64; x64) AppleWebKit/537.36 (KHTML, like Gecko) Chrome/134.0.0.0 YaBrowser/25.4.0.0 Safari/537.36" version="27.1.6">
  <diagram name="Страница — 1" id="S0M6JsqT8_kTLKjQTmjt">
    <mxGraphModel dx="1462" dy="433" grid="1" gridSize="10" guides="1" tooltips="1" connect="1" arrows="1" fold="1" page="1" pageScale="1" pageWidth="827" pageHeight="1169" math="0" shadow="0">
      <root>
        <mxCell id="0" />
        <mxCell id="1" parent="0" />
        <mxCell id="Kw0BymmqFomNwx9GgbPT-1" value="Филиал" style="rounded=0;whiteSpace=wrap;html=1;fillColor=#d5e8d4;strokeColor=#82b366;" parent="1" vertex="1">
          <mxGeometry x="-710" y="190" width="120" height="60" as="geometry" />
        </mxCell>
        <mxCell id="Kw0BymmqFomNwx9GgbPT-3" value="Договор" style="rounded=0;whiteSpace=wrap;html=1;fillColor=#d5e8d4;strokeColor=#82b366;" parent="1" vertex="1">
          <mxGeometry x="-370" y="430" width="120" height="60" as="geometry" />
        </mxCell>
        <mxCell id="Kw0BymmqFomNwx9GgbPT-4" value="Страховой агент" style="rounded=0;whiteSpace=wrap;html=1;fillColor=#d5e8d4;strokeColor=#82b366;" parent="1" vertex="1">
          <mxGeometry x="-372" y="190" width="120" height="60" as="geometry" />
        </mxCell>
        <mxCell id="XzbslvutjGLTQZlmg83A-1" value="Вид страхования" style="rounded=0;whiteSpace=wrap;html=1;fillColor=#d5e8d4;strokeColor=#82b366;" parent="1" vertex="1">
          <mxGeometry x="-50" y="430" width="120" height="60" as="geometry" />
        </mxCell>
        <mxCell id="XzbslvutjGLTQZlmg83A-3" value="" style="rhombus;whiteSpace=wrap;html=1;fillColor=#fff2cc;strokeColor=#d6b656;" parent="1" vertex="1">
          <mxGeometry x="-490" y="205" width="30" height="30" as="geometry" />
        </mxCell>
        <mxCell id="XzbslvutjGLTQZlmg83A-4" value="" style="rhombus;whiteSpace=wrap;html=1;fillColor=#fff2cc;strokeColor=#d6b656;" parent="1" vertex="1">
          <mxGeometry x="-325" y="320" width="30" height="30" as="geometry" />
        </mxCell>
        <mxCell id="XzbslvutjGLTQZlmg83A-6" value="" style="rhombus;whiteSpace=wrap;html=1;fillColor=#fff2cc;strokeColor=#d6b656;" parent="1" vertex="1">
          <mxGeometry x="-490" y="320" width="30" height="30" as="geometry" />
        </mxCell>
        <mxCell id="XzbslvutjGLTQZlmg83A-8" value="" style="rhombus;whiteSpace=wrap;html=1;fillColor=#fff2cc;strokeColor=#d6b656;" parent="1" vertex="1">
          <mxGeometry x="-165" y="445" width="30" height="30" as="geometry" />
        </mxCell>
        <mxCell id="Kw0BymmqFomNwx9GgbPT-2" value="Клиент" style="rounded=0;whiteSpace=wrap;html=1;fillColor=#d5e8d4;strokeColor=#82b366;" parent="1" vertex="1">
          <mxGeometry x="268.99" y="190" width="120" height="60" as="geometry" />
        </mxCell>
        <mxCell id="XzbslvutjGLTQZlmg83A-18" value="" style="endArrow=none;html=1;rounded=0;exitX=0;exitY=0.5;exitDx=0;exitDy=0;entryX=1;entryY=0.5;entryDx=0;entryDy=0;" parent="1" source="Kw0BymmqFomNwx9GgbPT-4" target="XzbslvutjGLTQZlmg83A-3" edge="1">
          <mxGeometry width="50" height="50" relative="1" as="geometry">
            <mxPoint x="25.5" y="390" as="sourcePoint" />
            <mxPoint x="-174.5" y="220" as="targetPoint" />
          </mxGeometry>
        </mxCell>
        <mxCell id="XzbslvutjGLTQZlmg83A-24" value="М" style="edgeLabel;html=1;align=center;verticalAlign=middle;resizable=0;points=[];" parent="XzbslvutjGLTQZlmg83A-18" vertex="1" connectable="0">
          <mxGeometry x="0.0118" relative="1" as="geometry">
            <mxPoint as="offset" />
          </mxGeometry>
        </mxCell>
        <mxCell id="XzbslvutjGLTQZlmg83A-19" value="" style="endArrow=none;html=1;rounded=0;exitX=1;exitY=0.5;exitDx=0;exitDy=0;" parent="1" source="Kw0BymmqFomNwx9GgbPT-1" edge="1">
          <mxGeometry width="50" height="50" relative="1" as="geometry">
            <mxPoint x="-469.5" y="220" as="sourcePoint" />
            <mxPoint x="-490" y="220" as="targetPoint" />
          </mxGeometry>
        </mxCell>
        <mxCell id="XzbslvutjGLTQZlmg83A-20" value="1" style="edgeLabel;html=1;align=center;verticalAlign=middle;resizable=0;points=[];" parent="XzbslvutjGLTQZlmg83A-19" vertex="1" connectable="0">
          <mxGeometry x="0.0281" y="2" relative="1" as="geometry">
            <mxPoint as="offset" />
          </mxGeometry>
        </mxCell>
        <mxCell id="XzbslvutjGLTQZlmg83A-25" value="" style="endArrow=none;html=1;rounded=0;exitX=0.5;exitY=0;exitDx=0;exitDy=0;" parent="1" source="XzbslvutjGLTQZlmg83A-4" edge="1">
          <mxGeometry width="50" height="50" relative="1" as="geometry">
            <mxPoint x="-290" y="390" as="sourcePoint" />
            <mxPoint x="-310" y="250" as="targetPoint" />
          </mxGeometry>
        </mxCell>
        <mxCell id="XzbslvutjGLTQZlmg83A-27" value="1" style="edgeLabel;html=1;align=center;verticalAlign=middle;resizable=0;points=[];" parent="XzbslvutjGLTQZlmg83A-25" vertex="1" connectable="0">
          <mxGeometry x="0.0211" y="2" relative="1" as="geometry">
            <mxPoint as="offset" />
          </mxGeometry>
        </mxCell>
        <mxCell id="XzbslvutjGLTQZlmg83A-26" value="" style="endArrow=none;html=1;rounded=0;exitX=0.5;exitY=1;exitDx=0;exitDy=0;entryX=0.5;entryY=0;entryDx=0;entryDy=0;" parent="1" source="XzbslvutjGLTQZlmg83A-4" target="Kw0BymmqFomNwx9GgbPT-3" edge="1">
          <mxGeometry width="50" height="50" relative="1" as="geometry">
            <mxPoint x="-290" y="390" as="sourcePoint" />
            <mxPoint x="-240" y="340" as="targetPoint" />
          </mxGeometry>
        </mxCell>
        <mxCell id="XzbslvutjGLTQZlmg83A-28" value="М" style="edgeLabel;html=1;align=center;verticalAlign=middle;resizable=0;points=[];" parent="XzbslvutjGLTQZlmg83A-26" vertex="1" connectable="0">
          <mxGeometry x="0.0436" relative="1" as="geometry">
            <mxPoint y="-12" as="offset" />
          </mxGeometry>
        </mxCell>
        <mxCell id="XzbslvutjGLTQZlmg83A-29" value="" style="endArrow=none;html=1;rounded=0;exitX=0.5;exitY=0;exitDx=0;exitDy=0;entryX=0.162;entryY=0.666;entryDx=0;entryDy=0;entryPerimeter=0;" parent="1" source="Kw0BymmqFomNwx9GgbPT-3" target="XzbslvutjGLTQZlmg83A-5" edge="1">
          <mxGeometry width="50" height="50" relative="1" as="geometry">
            <mxPoint x="-290" y="390" as="sourcePoint" />
            <mxPoint x="-240" y="340" as="targetPoint" />
          </mxGeometry>
        </mxCell>
        <mxCell id="XzbslvutjGLTQZlmg83A-33" value="М" style="edgeLabel;html=1;align=center;verticalAlign=middle;resizable=0;points=[];" parent="XzbslvutjGLTQZlmg83A-29" vertex="1" connectable="0">
          <mxGeometry x="-0.0008" y="1" relative="1" as="geometry">
            <mxPoint y="1" as="offset" />
          </mxGeometry>
        </mxCell>
        <mxCell id="XzbslvutjGLTQZlmg83A-30" value="" style="endArrow=none;html=1;rounded=0;entryX=0.5;entryY=1;entryDx=0;entryDy=0;exitX=0.883;exitY=0.374;exitDx=0;exitDy=0;exitPerimeter=0;" parent="1" source="XzbslvutjGLTQZlmg83A-5" target="Kw0BymmqFomNwx9GgbPT-2" edge="1">
          <mxGeometry width="50" height="50" relative="1" as="geometry">
            <mxPoint x="-142" y="330" as="sourcePoint" />
            <mxPoint x="-240" y="340" as="targetPoint" />
          </mxGeometry>
        </mxCell>
        <mxCell id="XzbslvutjGLTQZlmg83A-34" value="1" style="edgeLabel;html=1;align=center;verticalAlign=middle;resizable=0;points=[];" parent="XzbslvutjGLTQZlmg83A-30" vertex="1" connectable="0">
          <mxGeometry x="-0.046" relative="1" as="geometry">
            <mxPoint as="offset" />
          </mxGeometry>
        </mxCell>
        <mxCell id="XzbslvutjGLTQZlmg83A-5" value="" style="rhombus;whiteSpace=wrap;html=1;fillColor=#fff2cc;strokeColor=#d6b656;" parent="1" vertex="1">
          <mxGeometry x="-5" y="330" width="30" height="30" as="geometry" />
        </mxCell>
        <mxCell id="XzbslvutjGLTQZlmg83A-35" value="" style="endArrow=none;html=1;rounded=0;entryX=1;entryY=1;entryDx=0;entryDy=0;exitX=0.5;exitY=0;exitDx=0;exitDy=0;" parent="1" source="Kw0BymmqFomNwx9GgbPT-3" target="XzbslvutjGLTQZlmg83A-6" edge="1">
          <mxGeometry width="50" height="50" relative="1" as="geometry">
            <mxPoint x="-320" y="400" as="sourcePoint" />
            <mxPoint x="-270" y="350" as="targetPoint" />
          </mxGeometry>
        </mxCell>
        <mxCell id="XzbslvutjGLTQZlmg83A-38" value="М" style="edgeLabel;html=1;align=center;verticalAlign=middle;resizable=0;points=[];" parent="XzbslvutjGLTQZlmg83A-35" vertex="1" connectable="0">
          <mxGeometry x="0.136" relative="1" as="geometry">
            <mxPoint x="-1" as="offset" />
          </mxGeometry>
        </mxCell>
        <mxCell id="XzbslvutjGLTQZlmg83A-36" value="" style="endArrow=none;html=1;rounded=0;entryX=0.5;entryY=1;entryDx=0;entryDy=0;exitX=0.104;exitY=0.38;exitDx=0;exitDy=0;exitPerimeter=0;" parent="1" source="XzbslvutjGLTQZlmg83A-6" target="Kw0BymmqFomNwx9GgbPT-1" edge="1">
          <mxGeometry width="50" height="50" relative="1" as="geometry">
            <mxPoint x="-490" y="330" as="sourcePoint" />
            <mxPoint x="-400" y="340" as="targetPoint" />
          </mxGeometry>
        </mxCell>
        <mxCell id="Y7COooBDojfb6c1okBBt-1" value="1" style="edgeLabel;html=1;align=center;verticalAlign=middle;resizable=0;points=[];" parent="XzbslvutjGLTQZlmg83A-36" vertex="1" connectable="0">
          <mxGeometry x="0.067" y="-2" relative="1" as="geometry">
            <mxPoint as="offset" />
          </mxGeometry>
        </mxCell>
        <mxCell id="XzbslvutjGLTQZlmg83A-49" value="" style="endArrow=none;html=1;rounded=0;exitX=1;exitY=0.5;exitDx=0;exitDy=0;entryX=0;entryY=0.5;entryDx=0;entryDy=0;" parent="1" source="Kw0BymmqFomNwx9GgbPT-3" target="XzbslvutjGLTQZlmg83A-8" edge="1">
          <mxGeometry width="50" height="50" relative="1" as="geometry">
            <mxPoint x="-330" y="390" as="sourcePoint" />
            <mxPoint x="-280" y="340" as="targetPoint" />
          </mxGeometry>
        </mxCell>
        <mxCell id="XzbslvutjGLTQZlmg83A-51" value="М" style="edgeLabel;html=1;align=center;verticalAlign=middle;resizable=0;points=[];" parent="XzbslvutjGLTQZlmg83A-49" vertex="1" connectable="0">
          <mxGeometry x="-0.0275" y="-1" relative="1" as="geometry">
            <mxPoint as="offset" />
          </mxGeometry>
        </mxCell>
        <mxCell id="XzbslvutjGLTQZlmg83A-50" value="" style="endArrow=none;html=1;rounded=0;entryX=0;entryY=0.5;entryDx=0;entryDy=0;exitX=1;exitY=0.5;exitDx=0;exitDy=0;" parent="1" source="XzbslvutjGLTQZlmg83A-8" target="XzbslvutjGLTQZlmg83A-1" edge="1">
          <mxGeometry width="50" height="50" relative="1" as="geometry">
            <mxPoint x="-330" y="390" as="sourcePoint" />
            <mxPoint x="-280" y="340" as="targetPoint" />
          </mxGeometry>
        </mxCell>
        <mxCell id="XzbslvutjGLTQZlmg83A-52" value="1" style="edgeLabel;html=1;align=center;verticalAlign=middle;resizable=0;points=[];" parent="XzbslvutjGLTQZlmg83A-50" vertex="1" connectable="0">
          <mxGeometry x="-0.2627" y="-1" relative="1" as="geometry">
            <mxPoint as="offset" />
          </mxGeometry>
        </mxCell>
        <mxCell id="XzbslvutjGLTQZlmg83A-53" value="Наименование" style="ellipse;whiteSpace=wrap;html=1;fillColor=#e1d5e7;strokeColor=#9673a6;" parent="1" vertex="1">
          <mxGeometry x="-100" y="550" width="100" height="27" as="geometry" />
        </mxCell>
        <mxCell id="XzbslvutjGLTQZlmg83A-54" value="Адрес" style="ellipse;whiteSpace=wrap;html=1;fillColor=#e1d5e7;strokeColor=#9673a6;" parent="1" vertex="1">
          <mxGeometry x="-684.5" y="80" width="69" height="25" as="geometry" />
        </mxCell>
        <mxCell id="XzbslvutjGLTQZlmg83A-55" value="Номер телефона" style="ellipse;whiteSpace=wrap;html=1;fillColor=#e1d5e7;strokeColor=#9673a6;" parent="1" vertex="1">
          <mxGeometry x="-630" y="107.5" width="110" height="30" as="geometry" />
        </mxCell>
        <mxCell id="XzbslvutjGLTQZlmg83A-56" value="Фамилия" style="ellipse;whiteSpace=wrap;html=1;fillColor=#e1d5e7;strokeColor=#9673a6;" parent="1" vertex="1">
          <mxGeometry x="228.99" y="70" width="90" height="25" as="geometry" />
        </mxCell>
        <mxCell id="XzbslvutjGLTQZlmg83A-57" value="Имя" style="ellipse;whiteSpace=wrap;html=1;fillColor=#e1d5e7;strokeColor=#9673a6;" parent="1" vertex="1">
          <mxGeometry x="308.99" y="50" width="40" height="20" as="geometry" />
        </mxCell>
        <mxCell id="XzbslvutjGLTQZlmg83A-58" value="Отчество" style="ellipse;whiteSpace=wrap;html=1;fillColor=#e1d5e7;strokeColor=#9673a6;" parent="1" vertex="1">
          <mxGeometry x="-424.5" y="82" width="90" height="23" as="geometry" />
        </mxCell>
        <mxCell id="XzbslvutjGLTQZlmg83A-59" value="Фамилия" style="ellipse;whiteSpace=wrap;html=1;fillColor=#e1d5e7;strokeColor=#9673a6;" parent="1" vertex="1">
          <mxGeometry x="-264.5" y="110" width="90" height="30" as="geometry" />
        </mxCell>
        <mxCell id="XzbslvutjGLTQZlmg83A-60" value="Имя" style="ellipse;whiteSpace=wrap;html=1;fillColor=#e1d5e7;strokeColor=#9673a6;" parent="1" vertex="1">
          <mxGeometry x="-335" y="60" width="60" height="20" as="geometry" />
        </mxCell>
        <mxCell id="XzbslvutjGLTQZlmg83A-61" value="Отчество" style="ellipse;whiteSpace=wrap;html=1;fillColor=#e1d5e7;strokeColor=#9673a6;" parent="1" vertex="1">
          <mxGeometry x="348.99" y="70" width="90" height="25" as="geometry" />
        </mxCell>
        <mxCell id="XzbslvutjGLTQZlmg83A-63" value="Дата рождения" style="ellipse;whiteSpace=wrap;html=1;fillColor=#e1d5e7;strokeColor=#9673a6;" parent="1" vertex="1">
          <mxGeometry x="183.99" y="105" width="100" height="30" as="geometry" />
        </mxCell>
        <mxCell id="XzbslvutjGLTQZlmg83A-64" value="Номер телефона" style="ellipse;whiteSpace=wrap;html=1;fillColor=#e1d5e7;strokeColor=#9673a6;" parent="1" vertex="1">
          <mxGeometry x="-474.5" y="110" width="120" height="30" as="geometry" />
        </mxCell>
        <mxCell id="XzbslvutjGLTQZlmg83A-65" value="Номер телефона" style="ellipse;whiteSpace=wrap;html=1;fillColor=#e1d5e7;strokeColor=#9673a6;" parent="1" vertex="1">
          <mxGeometry x="368.99" y="105" width="120" height="30" as="geometry" />
        </mxCell>
        <mxCell id="XzbslvutjGLTQZlmg83A-66" value="Адрес" style="ellipse;whiteSpace=wrap;html=1;fillColor=#e1d5e7;strokeColor=#9673a6;" parent="1" vertex="1">
          <mxGeometry x="-294.5" y="85" width="69" height="20" as="geometry" />
        </mxCell>
        <mxCell id="XzbslvutjGLTQZlmg83A-67" value="Дата заклюения" style="ellipse;whiteSpace=wrap;html=1;fillColor=#e1d5e7;strokeColor=#9673a6;" parent="1" vertex="1">
          <mxGeometry x="-370" y="580" width="120" height="30" as="geometry" />
        </mxCell>
        <mxCell id="XzbslvutjGLTQZlmg83A-68" value="Страховая сумма" style="ellipse;whiteSpace=wrap;html=1;fillColor=#e1d5e7;strokeColor=#9673a6;" parent="1" vertex="1">
          <mxGeometry x="-455" y="547" width="130" height="30" as="geometry" />
        </mxCell>
        <mxCell id="XzbslvutjGLTQZlmg83A-76" value="Название" style="ellipse;whiteSpace=wrap;html=1;fillColor=#e1d5e7;strokeColor=#9673a6;" parent="1" vertex="1">
          <mxGeometry x="-770" y="110" width="90" height="30" as="geometry" />
        </mxCell>
        <mxCell id="XzbslvutjGLTQZlmg83A-77" value="Тарифная ставка" style="ellipse;whiteSpace=wrap;html=1;fillColor=#e1d5e7;strokeColor=#9673a6;" parent="1" vertex="1">
          <mxGeometry x="-300" y="547" width="120" height="30" as="geometry" />
        </mxCell>
        <mxCell id="XzbslvutjGLTQZlmg83A-78" value="Процент агенту" style="ellipse;whiteSpace=wrap;html=1;fillColor=#e1d5e7;strokeColor=#9673a6;" parent="1" vertex="1">
          <mxGeometry x="20" y="550" width="107" height="27" as="geometry" />
        </mxCell>
        <mxCell id="XzbslvutjGLTQZlmg83A-81" value="" style="endArrow=none;html=1;rounded=0;entryX=0.5;entryY=1;entryDx=0;entryDy=0;exitX=0.5;exitY=0;exitDx=0;exitDy=0;" parent="1" source="Kw0BymmqFomNwx9GgbPT-1" target="XzbslvutjGLTQZlmg83A-54" edge="1">
          <mxGeometry width="50" height="50" relative="1" as="geometry">
            <mxPoint x="-660" y="390" as="sourcePoint" />
            <mxPoint x="-610" y="340" as="targetPoint" />
          </mxGeometry>
        </mxCell>
        <mxCell id="XzbslvutjGLTQZlmg83A-82" value="" style="endArrow=none;html=1;rounded=0;entryX=0.5;entryY=1;entryDx=0;entryDy=0;exitX=0.25;exitY=0;exitDx=0;exitDy=0;" parent="1" source="Kw0BymmqFomNwx9GgbPT-1" target="XzbslvutjGLTQZlmg83A-76" edge="1">
          <mxGeometry width="50" height="50" relative="1" as="geometry">
            <mxPoint x="-660" y="390" as="sourcePoint" />
            <mxPoint x="-610" y="340" as="targetPoint" />
          </mxGeometry>
        </mxCell>
        <mxCell id="XzbslvutjGLTQZlmg83A-83" value="" style="endArrow=none;html=1;rounded=0;entryX=0.5;entryY=1;entryDx=0;entryDy=0;exitX=0.75;exitY=0;exitDx=0;exitDy=0;" parent="1" source="Kw0BymmqFomNwx9GgbPT-1" target="XzbslvutjGLTQZlmg83A-55" edge="1">
          <mxGeometry width="50" height="50" relative="1" as="geometry">
            <mxPoint x="-660" y="390" as="sourcePoint" />
            <mxPoint x="-610" y="340" as="targetPoint" />
          </mxGeometry>
        </mxCell>
        <mxCell id="XzbslvutjGLTQZlmg83A-87" value="" style="endArrow=none;html=1;rounded=0;entryX=0.5;entryY=1;entryDx=0;entryDy=0;exitX=0.5;exitY=0;exitDx=0;exitDy=0;" parent="1" source="Kw0BymmqFomNwx9GgbPT-2" target="XzbslvutjGLTQZlmg83A-57" edge="1">
          <mxGeometry width="50" height="50" relative="1" as="geometry">
            <mxPoint x="208.99" y="180" as="sourcePoint" />
            <mxPoint x="258.99" y="130" as="targetPoint" />
          </mxGeometry>
        </mxCell>
        <mxCell id="XzbslvutjGLTQZlmg83A-88" value="" style="endArrow=none;html=1;rounded=0;entryX=1;entryY=1;entryDx=0;entryDy=0;exitX=0.386;exitY=0.005;exitDx=0;exitDy=0;exitPerimeter=0;" parent="1" source="Kw0BymmqFomNwx9GgbPT-2" target="XzbslvutjGLTQZlmg83A-56" edge="1">
          <mxGeometry width="50" height="50" relative="1" as="geometry">
            <mxPoint x="208.99" y="180" as="sourcePoint" />
            <mxPoint x="258.99" y="130" as="targetPoint" />
          </mxGeometry>
        </mxCell>
        <mxCell id="XzbslvutjGLTQZlmg83A-89" value="" style="endArrow=none;html=1;rounded=0;entryX=0;entryY=1;entryDx=0;entryDy=0;exitX=0.612;exitY=-0.003;exitDx=0;exitDy=0;exitPerimeter=0;" parent="1" source="Kw0BymmqFomNwx9GgbPT-2" target="XzbslvutjGLTQZlmg83A-61" edge="1">
          <mxGeometry width="50" height="50" relative="1" as="geometry">
            <mxPoint x="208.99" y="180" as="sourcePoint" />
            <mxPoint x="258.99" y="130" as="targetPoint" />
          </mxGeometry>
        </mxCell>
        <mxCell id="XzbslvutjGLTQZlmg83A-90" value="" style="endArrow=none;html=1;rounded=0;entryX=0.5;entryY=1;entryDx=0;entryDy=0;exitX=0.25;exitY=0;exitDx=0;exitDy=0;" parent="1" source="Kw0BymmqFomNwx9GgbPT-2" target="XzbslvutjGLTQZlmg83A-63" edge="1">
          <mxGeometry width="50" height="50" relative="1" as="geometry">
            <mxPoint x="208.99" y="180" as="sourcePoint" />
            <mxPoint x="258.99" y="130" as="targetPoint" />
          </mxGeometry>
        </mxCell>
        <mxCell id="XzbslvutjGLTQZlmg83A-91" value="" style="endArrow=none;html=1;rounded=0;entryX=0.5;entryY=1;entryDx=0;entryDy=0;exitX=0.75;exitY=0;exitDx=0;exitDy=0;" parent="1" source="Kw0BymmqFomNwx9GgbPT-2" target="XzbslvutjGLTQZlmg83A-65" edge="1">
          <mxGeometry width="50" height="50" relative="1" as="geometry">
            <mxPoint x="208.99" y="180" as="sourcePoint" />
            <mxPoint x="258.99" y="130" as="targetPoint" />
          </mxGeometry>
        </mxCell>
        <mxCell id="XzbslvutjGLTQZlmg83A-93" value="" style="endArrow=none;html=1;rounded=0;entryX=0.5;entryY=1;entryDx=0;entryDy=0;" parent="1" edge="1">
          <mxGeometry width="50" height="50" relative="1" as="geometry">
            <mxPoint x="-314.5" y="190" as="sourcePoint" />
            <mxPoint x="-314.5" y="80" as="targetPoint" />
          </mxGeometry>
        </mxCell>
        <mxCell id="XzbslvutjGLTQZlmg83A-94" value="" style="endArrow=none;html=1;rounded=0;entryX=1;entryY=1;entryDx=0;entryDy=0;exitX=0.362;exitY=0.021;exitDx=0;exitDy=0;exitPerimeter=0;" parent="1" source="Kw0BymmqFomNwx9GgbPT-4" target="XzbslvutjGLTQZlmg83A-58" edge="1">
          <mxGeometry width="50" height="50" relative="1" as="geometry">
            <mxPoint x="-254.5" y="120" as="sourcePoint" />
            <mxPoint x="-204.5" y="70" as="targetPoint" />
          </mxGeometry>
        </mxCell>
        <mxCell id="XzbslvutjGLTQZlmg83A-95" value="" style="endArrow=none;html=1;rounded=0;entryX=0.23;entryY=0.943;entryDx=0;entryDy=0;exitX=0.624;exitY=-0.011;exitDx=0;exitDy=0;exitPerimeter=0;entryPerimeter=0;" parent="1" source="Kw0BymmqFomNwx9GgbPT-4" target="XzbslvutjGLTQZlmg83A-66" edge="1">
          <mxGeometry width="50" height="50" relative="1" as="geometry">
            <mxPoint x="-254.5" y="120" as="sourcePoint" />
            <mxPoint x="-204.5" y="70" as="targetPoint" />
          </mxGeometry>
        </mxCell>
        <mxCell id="XzbslvutjGLTQZlmg83A-96" value="" style="endArrow=none;html=1;rounded=0;entryX=0.723;entryY=0.93;entryDx=0;entryDy=0;entryPerimeter=0;exitX=0.25;exitY=0;exitDx=0;exitDy=0;" parent="1" source="Kw0BymmqFomNwx9GgbPT-4" target="XzbslvutjGLTQZlmg83A-64" edge="1">
          <mxGeometry width="50" height="50" relative="1" as="geometry">
            <mxPoint x="-254.5" y="120" as="sourcePoint" />
            <mxPoint x="-204.5" y="70" as="targetPoint" />
          </mxGeometry>
        </mxCell>
        <mxCell id="XzbslvutjGLTQZlmg83A-97" value="" style="endArrow=none;html=1;rounded=0;entryX=0.234;entryY=0.946;entryDx=0;entryDy=0;exitX=0.75;exitY=0;exitDx=0;exitDy=0;entryPerimeter=0;" parent="1" source="Kw0BymmqFomNwx9GgbPT-4" target="XzbslvutjGLTQZlmg83A-59" edge="1">
          <mxGeometry width="50" height="50" relative="1" as="geometry">
            <mxPoint x="-254.5" y="120" as="sourcePoint" />
            <mxPoint x="-204.5" y="70" as="targetPoint" />
          </mxGeometry>
        </mxCell>
        <mxCell id="XzbslvutjGLTQZlmg83A-99" value="" style="endArrow=none;html=1;rounded=0;entryX=0.5;entryY=0;entryDx=0;entryDy=0;exitX=0.6;exitY=0.994;exitDx=0;exitDy=0;exitPerimeter=0;" parent="1" source="XzbslvutjGLTQZlmg83A-1" target="XzbslvutjGLTQZlmg83A-78" edge="1">
          <mxGeometry width="50" height="50" relative="1" as="geometry">
            <mxPoint x="-200" y="480" as="sourcePoint" />
            <mxPoint x="-150" y="430" as="targetPoint" />
          </mxGeometry>
        </mxCell>
        <mxCell id="XzbslvutjGLTQZlmg83A-100" value="" style="endArrow=none;html=1;rounded=0;exitX=0.5;exitY=0;exitDx=0;exitDy=0;entryX=0.36;entryY=1.001;entryDx=0;entryDy=0;entryPerimeter=0;" parent="1" source="XzbslvutjGLTQZlmg83A-53" target="XzbslvutjGLTQZlmg83A-1" edge="1">
          <mxGeometry width="50" height="50" relative="1" as="geometry">
            <mxPoint x="-200" y="480" as="sourcePoint" />
            <mxPoint x="-150" y="430" as="targetPoint" />
          </mxGeometry>
        </mxCell>
        <mxCell id="XzbslvutjGLTQZlmg83A-105" value="" style="endArrow=none;html=1;rounded=0;exitX=0.5;exitY=0;exitDx=0;exitDy=0;entryX=0.5;entryY=1;entryDx=0;entryDy=0;" parent="1" source="XzbslvutjGLTQZlmg83A-67" edge="1" target="Kw0BymmqFomNwx9GgbPT-3">
          <mxGeometry width="50" height="50" relative="1" as="geometry">
            <mxPoint x="-280" y="560" as="sourcePoint" />
            <mxPoint x="-320" y="490" as="targetPoint" />
          </mxGeometry>
        </mxCell>
        <mxCell id="XzbslvutjGLTQZlmg83A-107" value="" style="endArrow=none;html=1;rounded=0;exitX=0.718;exitY=0.028;exitDx=0;exitDy=0;exitPerimeter=0;entryX=0.25;entryY=1;entryDx=0;entryDy=0;" parent="1" source="XzbslvutjGLTQZlmg83A-68" target="Kw0BymmqFomNwx9GgbPT-3" edge="1">
          <mxGeometry width="50" height="50" relative="1" as="geometry">
            <mxPoint x="-280" y="560" as="sourcePoint" />
            <mxPoint x="-230" y="510" as="targetPoint" />
          </mxGeometry>
        </mxCell>
        <mxCell id="XzbslvutjGLTQZlmg83A-108" value="" style="endArrow=none;html=1;rounded=0;entryX=0.75;entryY=1;entryDx=0;entryDy=0;exitX=0.31;exitY=0.028;exitDx=0;exitDy=0;exitPerimeter=0;" parent="1" source="XzbslvutjGLTQZlmg83A-77" target="Kw0BymmqFomNwx9GgbPT-3" edge="1">
          <mxGeometry width="50" height="50" relative="1" as="geometry">
            <mxPoint x="-280" y="560" as="sourcePoint" />
            <mxPoint x="-230" y="510" as="targetPoint" />
          </mxGeometry>
        </mxCell>
        <mxCell id="x8yT13mcWa5Zi4C911Rh-4" value="Пользователь" style="rounded=0;whiteSpace=wrap;html=1;fillColor=#d5e8d4;strokeColor=#82b366;" parent="1" vertex="1">
          <mxGeometry x="-50" y="190" width="120" height="60" as="geometry" />
        </mxCell>
        <mxCell id="x8yT13mcWa5Zi4C911Rh-6" value="" style="rhombus;whiteSpace=wrap;html=1;fillColor=#fff2cc;strokeColor=#d6b656;" parent="1" vertex="1">
          <mxGeometry x="-165" y="205" width="30" height="30" as="geometry" />
        </mxCell>
        <mxCell id="x8yT13mcWa5Zi4C911Rh-7" value="" style="rhombus;whiteSpace=wrap;html=1;fillColor=#fff2cc;strokeColor=#d6b656;" parent="1" vertex="1">
          <mxGeometry x="153.99" y="205" width="30" height="30" as="geometry" />
        </mxCell>
        <mxCell id="x8yT13mcWa5Zi4C911Rh-8" value="" style="endArrow=none;html=1;rounded=0;entryX=0;entryY=0.5;entryDx=0;entryDy=0;exitX=1;exitY=0.5;exitDx=0;exitDy=0;" parent="1" source="x8yT13mcWa5Zi4C911Rh-6" target="x8yT13mcWa5Zi4C911Rh-4" edge="1">
          <mxGeometry width="50" height="50" relative="1" as="geometry">
            <mxPoint x="-150" y="450" as="sourcePoint" />
            <mxPoint x="-100" y="400" as="targetPoint" />
          </mxGeometry>
        </mxCell>
        <mxCell id="x8yT13mcWa5Zi4C911Rh-33" value="1" style="edgeLabel;html=1;align=center;verticalAlign=middle;resizable=0;points=[];" parent="x8yT13mcWa5Zi4C911Rh-8" vertex="1" connectable="0">
          <mxGeometry x="-0.0345" y="1" relative="1" as="geometry">
            <mxPoint as="offset" />
          </mxGeometry>
        </mxCell>
        <mxCell id="x8yT13mcWa5Zi4C911Rh-9" value="" style="endArrow=none;html=1;rounded=0;exitX=1;exitY=0.5;exitDx=0;exitDy=0;entryX=0;entryY=0.5;entryDx=0;entryDy=0;" parent="1" source="Kw0BymmqFomNwx9GgbPT-4" target="x8yT13mcWa5Zi4C911Rh-6" edge="1">
          <mxGeometry width="50" height="50" relative="1" as="geometry">
            <mxPoint x="-170" y="340" as="sourcePoint" />
            <mxPoint x="-120" y="290" as="targetPoint" />
          </mxGeometry>
        </mxCell>
        <mxCell id="x8yT13mcWa5Zi4C911Rh-26" value="1" style="edgeLabel;html=1;align=center;verticalAlign=middle;resizable=0;points=[];" parent="x8yT13mcWa5Zi4C911Rh-9" vertex="1" connectable="0">
          <mxGeometry x="-0.012" y="1" relative="1" as="geometry">
            <mxPoint as="offset" />
          </mxGeometry>
        </mxCell>
        <mxCell id="x8yT13mcWa5Zi4C911Rh-12" value="" style="endArrow=none;html=1;rounded=0;entryX=0;entryY=0.5;entryDx=0;entryDy=0;exitX=1;exitY=0.5;exitDx=0;exitDy=0;" parent="1" source="x8yT13mcWa5Zi4C911Rh-4" target="x8yT13mcWa5Zi4C911Rh-7" edge="1">
          <mxGeometry width="50" height="50" relative="1" as="geometry">
            <mxPoint x="-30" y="280" as="sourcePoint" />
            <mxPoint x="20" y="230" as="targetPoint" />
          </mxGeometry>
        </mxCell>
        <mxCell id="x8yT13mcWa5Zi4C911Rh-34" value="1" style="edgeLabel;html=1;align=center;verticalAlign=middle;resizable=0;points=[];" parent="x8yT13mcWa5Zi4C911Rh-12" vertex="1" connectable="0">
          <mxGeometry x="0.0621" y="1" relative="1" as="geometry">
            <mxPoint as="offset" />
          </mxGeometry>
        </mxCell>
        <mxCell id="x8yT13mcWa5Zi4C911Rh-13" value="" style="endArrow=none;html=1;rounded=0;entryX=0;entryY=0.5;entryDx=0;entryDy=0;exitX=1;exitY=0.5;exitDx=0;exitDy=0;" parent="1" source="x8yT13mcWa5Zi4C911Rh-7" target="Kw0BymmqFomNwx9GgbPT-2" edge="1">
          <mxGeometry width="50" height="50" relative="1" as="geometry">
            <mxPoint x="-30" y="280" as="sourcePoint" />
            <mxPoint x="20" y="230" as="targetPoint" />
          </mxGeometry>
        </mxCell>
        <mxCell id="x8yT13mcWa5Zi4C911Rh-29" value="1" style="edgeLabel;html=1;align=center;verticalAlign=middle;resizable=0;points=[];" parent="x8yT13mcWa5Zi4C911Rh-13" vertex="1" connectable="0">
          <mxGeometry x="-0.0978" y="2" relative="1" as="geometry">
            <mxPoint y="2" as="offset" />
          </mxGeometry>
        </mxCell>
        <mxCell id="x8yT13mcWa5Zi4C911Rh-17" value="Логин" style="ellipse;whiteSpace=wrap;html=1;fillColor=#e1d5e7;strokeColor=#9673a6;" parent="1" vertex="1">
          <mxGeometry x="-75" y="95" width="70" height="30" as="geometry" />
        </mxCell>
        <mxCell id="x8yT13mcWa5Zi4C911Rh-18" value="Пароль" style="ellipse;whiteSpace=wrap;html=1;fillColor=#e1d5e7;strokeColor=#9673a6;" parent="1" vertex="1">
          <mxGeometry x="25" y="95" width="70" height="30" as="geometry" />
        </mxCell>
        <mxCell id="x8yT13mcWa5Zi4C911Rh-19" value="Роль" style="ellipse;whiteSpace=wrap;html=1;fillColor=#e1d5e7;strokeColor=#9673a6;" parent="1" vertex="1">
          <mxGeometry x="-20" y="60" width="60" height="30" as="geometry" />
        </mxCell>
        <mxCell id="x8yT13mcWa5Zi4C911Rh-20" value="" style="endArrow=none;html=1;rounded=0;entryX=0.5;entryY=1;entryDx=0;entryDy=0;exitX=0.5;exitY=0;exitDx=0;exitDy=0;" parent="1" source="x8yT13mcWa5Zi4C911Rh-4" target="x8yT13mcWa5Zi4C911Rh-19" edge="1">
          <mxGeometry width="50" height="50" relative="1" as="geometry">
            <mxPoint x="-40" y="290" as="sourcePoint" />
            <mxPoint x="10" y="240" as="targetPoint" />
          </mxGeometry>
        </mxCell>
        <mxCell id="x8yT13mcWa5Zi4C911Rh-21" value="" style="endArrow=none;html=1;rounded=0;entryX=0.5;entryY=1;entryDx=0;entryDy=0;exitX=0.25;exitY=0;exitDx=0;exitDy=0;" parent="1" source="x8yT13mcWa5Zi4C911Rh-4" target="x8yT13mcWa5Zi4C911Rh-17" edge="1">
          <mxGeometry width="50" height="50" relative="1" as="geometry">
            <mxPoint x="-40" y="290" as="sourcePoint" />
            <mxPoint x="10" y="240" as="targetPoint" />
          </mxGeometry>
        </mxCell>
        <mxCell id="x8yT13mcWa5Zi4C911Rh-22" value="" style="endArrow=none;html=1;rounded=0;entryX=0.5;entryY=1;entryDx=0;entryDy=0;exitX=0.75;exitY=0;exitDx=0;exitDy=0;" parent="1" source="x8yT13mcWa5Zi4C911Rh-4" target="x8yT13mcWa5Zi4C911Rh-18" edge="1">
          <mxGeometry width="50" height="50" relative="1" as="geometry">
            <mxPoint x="-40" y="290" as="sourcePoint" />
            <mxPoint x="10" y="240" as="targetPoint" />
          </mxGeometry>
        </mxCell>
      </root>
    </mxGraphModel>
  </diagram>
</mxfile>
